<?xml version="1.0" standalone="no"?>
<!DOCTYPE svg PUBLIC "-//W3C//DTD SVG 1.1//EN" "http://www.w3.org/Graphics/SVG/1.1/DTD/svg11.dtd" >
<svg xmlns="http://www.w3.org/2000/svg">
<metadata>
Created by FontForge 20120731 at Wed Jan 11 16:04:42 2017
 By admin
</metadata>
<defs>
<font id="iconfont" horiz-adv-x="1024" >
  <font-face 
    font-family="iconfont"
    font-weight="500"
    font-stretch="normal"
    units-per-em="1024"
    panose-1="2 0 6 3 0 0 0 0 0 0"
    ascent="896"
    descent="-128"
    x-height="792"
    bbox="0 -128.124 2490 896"
    underline-thickness="0"
    underline-position="0"
    unicode-range="U+0078-E733"
  />
<missing-glyph 
 />
    <glyph glyph-name=".notdef" 
 />
    <glyph glyph-name=".notdef" 
 />
    <glyph glyph-name=".null" horiz-adv-x="0" 
 />
    <glyph glyph-name="nonmarkingreturn" horiz-adv-x="341" 
 />
    <glyph glyph-name="x" unicode="x" horiz-adv-x="1001" 
d="M281 543q-27 -1 -53 -1h-83q-18 0 -36.5 -6t-32.5 -18.5t-23 -32t-9 -45.5v-76h912v41q0 16 -0.5 30t-0.5 18q0 13 -5 29t-17 29.5t-31.5 22.5t-49.5 9h-133v-97h-438v97zM955 310v-52q0 -23 0.5 -52t0.5 -58t-10.5 -47.5t-26 -30t-33 -16t-31.5 -4.5q-14 -1 -29.5 -0.5
t-29.5 0.5h-32l-45 128h-439l-44 -128h-29h-34q-20 0 -45 1q-25 0 -41 9.5t-25.5 23t-13.5 29.5t-4 30v167h911zM163 247q-12 0 -21 -8.5t-9 -21.5t9 -21.5t21 -8.5q13 0 22 8.5t9 21.5t-9 21.5t-22 8.5zM316 123q-8 -26 -14 -48q-5 -19 -10.5 -37t-7.5 -25t-3 -15t1 -14.5
t9.5 -10.5t21.5 -4h37h67h81h80h64h36q23 0 34 12t2 38q-5 13 -9.5 30.5t-9.5 34.5q-5 19 -11 39h-368zM336 498v228q0 11 2.5 23t10 21.5t20.5 15.5t34 6h188q31 0 51.5 -14.5t20.5 -52.5v-227h-327z" />
    <glyph glyph-name="gl_memcache" unicode="&#xe70d;" horiz-adv-x="1404" 
d="M0 817h1024v-79h-1024v79zM0 423h1024v-78h-1024v78zM0 30h1024v-79h-1024v79zM1103 896h79v-1024h-79v1024zM1182 -128l-56 56l223 222l56 -55z" />
    <glyph glyph-name="gl_solr" unicode="&#xe70e;" 
d="M64 384h128v-448h-128v448zM0 -128h256v576h-256v-576zM448 576h128v-640h-128v640zM384 -128h256v768h-256v-768zM832 832h128v-896h-128v896zM768 -128h256v1024h-256v-1024z" />
    <glyph glyph-name="gl_member" unicode="&#xe70f;" horiz-adv-x="1145" 
d="M800 598q0 120 -88.5 209t-209 89t-209 -89t-88.5 -209t88.5 -209t208.5 -89t209 89t89 209zM508 374q-94 0 -159.5 65t-65.5 159t65.5 159.5t159.5 65.5t159 -65.5t65 -159.5q-4 -91 -69.5 -157.5t-154.5 -66.5zM868 201q-72 73 -162 110q-17 4 -30 -1t-17 -20
q-8 -16 -1.5 -29.5t22.5 -17.5q78 -31 141 -94t94 -141q25 -58 31 -105q11 -31 37 -31q16 0 28 13.5t9 28.5q-9 69 -37 125q-47 94 -115 162zM309 311q-90 -37 -162 -110q-66 -66 -110 -162q-15 -42 -36 -125q-4 -15 8 -28.5t28 -13.5q12 0 22.5 9.5t14.5 21.5q8 59 31 105
q32 78 94.5 141t140.5 94q12 8 16 21.5t0 25.5q-8 16 -21.5 22t-25.5 -1zM905 368q24 52 39 100.5t19 88.5t3 76.5t-8.5 65.5t-16.5 53t-20 42.5t-19.5 30.5t-15.5 20t-8 9q-34 18 -57 -5q-11 -12 -9 -28.5t14 -28.5q6 -6 10 -10.5t17.5 -25.5t21 -43t12.5 -59t0.5 -77
t-22 -95t-49.5 -114q-8 -15 0 -31q10 -21 26 -21q8 -3 22 -8.5t50.5 -28t66 -50t56.5 -76t35 -103.5q4 -15 14 -23.5t22 -8.5h6q16 5 25.5 16t5.5 26q-8 52 -29 98.5t-45.5 78.5t-57.5 60t-57.5 43t-50.5 28v0z" />
    <glyph glyph-name="gl_return" unicode="&#xe710;" 
d="M745 840v-108q85 -57 135.5 -149t50.5 -199q0 -114 -56 -210.5t-152.5 -152.5t-210.5 -56t-210.5 56t-152.5 152.5t-56 210.5q0 107 50.5 199t135.5 149v108q-126 -64 -202.5 -186.5t-76.5 -269.5q0 -139 68.5 -257t186.5 -186.5t257 -68.5t257 68.5t186.5 186.5
t68.5 257q0 147 -76.5 269t-202.5 187zM558 896h-92v-512h92v512z" />
    <glyph glyph-name="gl_quanli" unicode="&#xe711;" 
d="M913 369v430q0 7 -5 12q-21 21 -55 21t-75.5 -10.5t-56.5 -10.5q-21 0 -58.5 21.5t-80 42.5t-76.5 21q-29 0 -67 -22.5t-73 -45t-56 -22.5q-14 0 -44 7.5t-55 13.5t-52.5 3.5t-42.5 -19.5q-5 -6 -5 -8v-447q10 -125 150 -292q78 -93 149 -142.5t100 -49.5q31 0 96.5 49.5
t166.5 158.5q40 45 69.5 91t42.5 80t20.5 61.5t7.5 42.5v14zM742 116q-172 -187 -232 -187q-25 0 -88 45t-131 127q-124 148 -134 258v395q0 18 2 20q6 8 8 9q22 9 79 -6.5t70 -15.5q19 0 54 19t73 37.5t64 18.5q30 0 67.5 -18.5t70.5 -37t52 -18.5q13 0 39 6.5t47 12.5
t45 7t32 -10q7 -7 7 -28v-379q0 -5 -0.5 -13.5t-7 -36t-18 -56t-37.5 -69.5t-62 -80zM512 703q-83 0 -141.5 -58.5t-58.5 -141.5t58.5 -141.5t141.5 -58.5t141.5 58.5t58.5 141.5t-58.5 141.5t-141.5 58.5zM512 349q-64 0 -109 45t-45 109t45 109t109 45t109 -45t45 -109
t-45 -109t-109 -45zM536 81q0 -10 -7 -17t-17 -7t-17 7t-7 17v223q11 -1 23 -1t18 1h7v-223z" />
    <glyph glyph-name="gl_password" unicode="&#xe712;" 
d="M796 512h-32v122q0 111 -71.5 186.5t-181.5 75.5t-180.5 -76t-70.5 -186v-122h-32q-52 0 -89 -37.5t-37 -90.5v-384q0 -53 37 -90.5t89 -37.5h568q52 0 89 37.5t37 90.5v384q0 53 -37 90.5t-89 37.5zM323 634q0 84 52 141t136 57t137 -56.5t53 -141.5v-122h-378v122z
M859 0q0 -26 -18.5 -45t-44.5 -19h-568q-26 0 -44.5 19t-18.5 45v384q0 26 18.5 45t44.5 19h568q26 0 44.5 -19t18.5 -45v-384v0zM512 320q-26 0 -44.5 -18.5t-18.5 -45.5q0 -37 32 -55v-105q0 -13 9 -22.5t22 -9.5t22.5 9.5t9.5 22.5v105q13 7 22 23.5t9 31.5v0
q0 27 -18.5 45.5t-44.5 18.5v0z" />
    <glyph glyph-name="gl_sosuo" unicode="&#xe713;" horiz-adv-x="1260" 
d="M0 896h1260v-79h-1260v79zM0 581h1260v-79h-1260v79zM0 266h1260v-79h-1260v79zM0 -49h1260v-79h-1260v79z" />
    <glyph glyph-name="gl_gongneng" unicode="&#xe714;" 
d="M64 832h320v-320h-320v320zM0 448h448v448h-448v-448zM640 832h320v-320h-320v320zM576 448h448v448h-448v-448zM64 256h320v-320h-320v320zM0 -128h448v448h-448v-448zM640 256h320v-320h-320v320zM576 -128h448v448h-448v-448z" />
    <glyph glyph-name="gl_jiantou" unicode="&#xe715;" horiz-adv-x="1792" 
d="M1664 896l-768 -768l-768 768l-128 -128l896 -896l896 896z" />
    <glyph glyph-name="gl_diqu" unicode="&#xe716;" 
d="M919 565q-30 143 -144 237t-263 94t-263 -94t-144 -237q-8 -42 -8 -84v0q0 -59 23.5 -125t58 -121.5t82.5 -114.5t87 -99t82 -79t58 -51t24 -19v0q9 7 24 19t58 51t82 79t87 99t82.5 114.5t58 121.5t23.5 125v1q0 41 -8 83zM512 -45q-8 6 -20.5 16.5t-50 44t-71.5 68.5
t-75.5 85.5t-71.5 99t-50.5 105.5t-20.5 108q0 36 8 72q25 124 124 205.5t228 81.5t228 -81.5t124 -205.5q8 -36 8 -72v0q0 -51 -20 -107.5t-51.5 -106.5t-70 -98t-77 -86.5t-70 -67.5t-51.5 -45zM512 723q-80 0 -140.5 -50t-76.5 -126q-4 -22 -4 -45v0q0 -43 22.5 -92
t55 -88.5t65 -73t55.5 -51.5l23 -19q9 7 24 19.5t53 50t67.5 74.5t53 87t23.5 93v0q0 23 -4 45q-16 76 -76.5 126t-140.5 50zM512 255q-7 5 -18 14t-39.5 37.5t-50.5 56t-40 65t-18 70.5q0 17 3 33q12 55 59.5 93.5t103.5 38.5v0v0q56 0 103.5 -38.5t59.5 -93.5q3 -16 3 -33
q0 -33 -17 -69.5t-41.5 -66.5t-49 -55t-41.5 -38l-17 -14v0z" />
    <glyph glyph-name="logo" unicode="&#xe717;" horiz-adv-x="2489" 
d="M250 623h-25q-22 0 -38 -17.5t-16 -42.5t16 -42.5t38 -17.5h25q22 0 38 17.5t16 42.5t-16 42.5t-38 17.5zM250 520h-25q-15 0 -26 12.5t-11 30.5t11 30.5t26 12.5h25q15 0 26 -12.5t11 -30.5t-11 -30.5t-26 -12.5zM16 620q-2 5 -7 5q-9 0 -9 -9q0 -2 1 -3l48 -105
q2 -4 8 -4v0q5 0 7 4l21 44l18 -43q2 -5 8 -5v0v0q5 0 8 4l46 105q1 1 1 3q0 6 -5 8q-2 1 -4 1q-5 0 -8 -5l-38 -87l-36 87q-3 5 -8 5q-2 0 -4 -1q-5 -2 -5 -8q0 -1 1 -3l17 -40l-19 -41zM821 624q-2 1 -4 1q-5 0 -7 -5l-39 -87l-36 87q-2 5 -8 5q-2 0 -3 -1q-6 -2 -6 -8
q0 -1 1 -3l17 -40l-19 -41l-41 88q-2 5 -7 5q-2 0 -4 -1q-5 -2 -5 -8q0 -2 1 -3l48 -105q3 -4 8 -4v0v0q5 0 8 4l20 44l18 -43q2 -5 8 -5v0v0q5 0 8 4l46 105q1 1 1 3q0 6 -5 8zM320 614v-103q0 -9 8.5 -9t8.5 9v0v95h53q23 0 23 -24q0 -23 -23 -23h-33q-9 0 -9 -8.5t9 -8.5
h25l28 -36q2 -4 7 -4v0q3 0 5 2q3 3 3 7q0 3 -2 5l-20 27q27 7 27 39q0 18 -11 29.5t-29 11.5h-62q-8 0 -8 -9zM460 615v0q0 9 -9 9v0q-8 0 -8 -9v0v-102q0 -9 8 -9h78q8 0 8 9q0 8 -8 8h-69v94zM658 564.5q0 26.5 -15.5 43t-39.5 16.5h-44v0q-9 0 -9 -9v-102q0 -9 9 -9h45
q23 0 38.5 17t15.5 43.5zM567 606h36q18 0 28 -11t10 -30.5t-10.5 -31.5t-26.5 -12h-37v85zM884 615v-102q0 -9 8 -9h45q24 0 39 17t15 43q0 27 -15 43.5t-39 16.5h-45v0q-8 0 -8 -9v0zM901 606h36q17 0 27.5 -11t10.5 -30.5t-10.5 -31.5t-27.5 -12h-36v85zM851 616v-104
q0 -8 8 -8v0q9 0 9 8v0v104v0q0 9 -8.5 9t-8.5 -9zM1017 504h80v0q8 0 8 9q0 8 -8 8v0h-71v85h71v0q8 0 8 9q0 8 -8 8v0h-80q-8 0 -8 -8v0v-102q0 -9 8 -9zM1097 573h-50v0q-9 0 -9 -9v0q0 -8 9 -8h50v0q8 0 8 8.5t-8 8.5v0zM1194 -128h156v0q14 0 24.5 10.5t10.5 24.5v0v0
q0 15 -10.5 25t-24.5 10v0h-156q-22 0 -36 1.5t-23.5 6.5t-14.5 9.5t-7.5 16.5t-3 21t-0.5 29v306q0 14 -10 24.5t-24.5 10.5t-25 -10.5t-10.5 -24.5v-306q0 -27 2.5 -46t11.5 -41t25 -35.5t45.5 -22.5t70.5 -9zM461 -126h226q15 0 25 10.5t10 24.5v214q0 15 -10 25t-25 10
v0h-168v0q-14 0 -24.5 -10t-10.5 -25v0q0 -14 10.5 -24.5t24.5 -10.5v0h133v-144h-191q-26 0 -52.5 9t-52 27t-41 51t-15.5 75q0 87 55.5 136.5t130.5 49.5h202v0q15 0 25 10.5t10 24.5v0q0 15 -10 25t-25 10v0h-202q-48 0 -93 -17t-82 -48t-59.5 -81t-22.5 -110
q0 -49 16 -89t40.5 -66t56 -44t61.5 -25.5t58 -7.5zM950 -66.5q0 23.5 -16.5 40t-40 16.5t-40 -16.5t-16.5 -40t16.5 -40.5t40 -17t40 17t16.5 40.5zM1944 896q-111 0 -212 -39.5t-174.5 -105.5t-116.5 -158t-43 -193q0 -210 155 -346q24 -20 11 -48q-41 -79 -79 -110
q-14 -12 3 -20q50 -20 232 57q18 6 41 -1q37 -12 90.5 -20t91.5 -8h1q111 0 212 39t174 105.5t116.5 158.5t43.5 193t-43.5 193t-116.5 158t-174 105.5t-212 39.5zM1666 609q0 17 12 29t29 12t29 -12t12 -29v-295q0 -17 -12 -29t-29 -12t-29 12t-12 29v295zM1707 121
q-22 0 -38 15t-16 36.5t16 37t38 15.5t38 -15t16 -37t-16 -37t-38 -15zM2280 226q0 -51 -39 -83q-13 -10 -34.5 -17.5t-39.5 -8.5h-215q-56 0 -92 33q-15 13 -25.5 37t-10.5 44v1v151q0 50 34 82q35 33 91 33h286q17 0 29 -12t12 -28.5t-12 -28.5t-29 -12h-286
q-21 0 -32.5 -9t-11.5 -25v-151q0 -15 13 -24t34 -9h215q13 0 23 8q9 7 9 19v32q0 9 -3 12t-10 3h-133v0q-17 0 -29 12t-12 29t12 28.5t29 11.5v0h187q17 0 28.5 -11.5t11.5 -28.5v-88zM2240 558h-374v0q-10 0 -20 5.5t-15 13.5q-6 10 -6 22q0 9 4 17l36 79q5 10 16 17t21 7
q9 0 17 -4q16 -7 21.5 -23t-1.5 -31l-9 -21h310q17 0 28.5 -12t11.5 -29t-11.5 -29t-28.5 -12v0z" />
    <glyph glyph-name="gl_more" unicode="&#xe718;" 
d="M512 896q-104 0 -199 -40.5t-163.5 -109t-109 -163.5t-40.5 -199t40.5 -199t109 -163.5t163.5 -109t199 -40.5t199 40.5t163.5 109t109 163.5t40.5 199t-40.5 199t-109 163.5t-163.5 109t-199 40.5zM512 -57q-90 0 -171.5 35t-140.5 94t-94 140.5t-35 171.5t35 171.5
t94 140.5t140.5 94t171.5 35t171.5 -35t140.5 -94t94 -140.5t35 -171.5t-35 -171.5t-94 -140.5t-140.5 -94t-171.5 -35zM353 384v0q0 -21 -15 -36t-37 -15v0q-21 0 -36 15t-15 36t15 36t36 15v0q22 0 37 -15t15 -36v0zM560 384q0 -21 -15 -36t-36.5 -15t-36.5 15t-15 36
t15 36t36 15v0q22 0 37 -15t15 -36v0zM774 384q0 -21 -15 -36t-36.5 -15t-36.5 15t-15 36t15 36t36.5 15t36.5 -15t15 -36v0z" />
    <glyph glyph-name="gl_zdgl" unicode="&#xe719;" 
d="M57 896v-1024h569v57h-512v910h796v-967h57v1024h-910zM569 612h57v-456h-57v456z" />
    <glyph glyph-name="gl_gggl" unicode="&#xe71a;" 
d="M0 896v-727l57 57v613h910v-967h57v1024h-1024zM680 -71l3 -3v3h-3zM57 146v2l162 163l382 -382h-544v217zM54 226v-3l-54 -54v-297h678v57h3l-462 462zM678 -71v-57h5v54l-3 3h-2zM968 -128l-201 201l40 40l201 -201z" />
    <glyph glyph-name="gl_ljgl" unicode="&#xe71b;" horiz-adv-x="1553" 
d="M1042 889h-137v-62h104q90 0 172.5 -35t141.5 -94.5t94 -141.5t35 -172t-35 -172t-94 -141.5t-141.5 -94.5t-172.5 -35h-104v-62h137q102 0 195.5 40t161 107.5t107.5 161t40 196.5t-40 196t-107.5 161t-161 108t-195.5 40zM544 -59q-90 0 -172 35t-141.5 94.5
t-94.5 141.5t-35 172t35 172t94.5 141.5t141.5 94.5t172 35h105v62h-137q-103 0 -196 -40t-161 -108t-108 -161t-40 -196t40 -196t108 -161t161 -107.5t196 -39.5h137v61h-105v0zM484 403h588v-38h-588v38z" />
    <glyph glyph-name="gl_fwgl" unicode="&#xe71c;" 
d="M844 867l11 -899l-307 202l-36 23l-36 -23l-296 -190v864h664v23zM832 896h-640q-26 0 -45 -19t-19 -45v-960l384 256l384 -256v960q0 26 -19 45t-45 19zM706 655q-17 18 -47 30t-55 12h-1v0q-25 0 -55 -12t-48 -30l-102 -102q-5 -5 -5 -12t5 -12t12 -5t12 5l102 102
q13 14 36.5 23.5t42.5 9.5v0q47 0 79.5 -33t32.5 -79.5t-33 -78.5l-170 -171l-170 170q-33 33 -33 79.5t33 79.5q13 14 36 23.5t42 9.5v0q9 0 17 -1q1 -1 2 -1q6 0 11 4.5t6 10.5v2q0 6 -4.5 11t-10.5 6q-10 1 -20 1q-23 0 -45 -7q-34 -10 -58 -35q-43 -43 -43 -103.5
t43 -102.5l182 -183q5 -5 12 -5t12 5l182 183q43 42 43 102.5t-43 103.5v0z" />
    <glyph glyph-name="gl_hygl" unicode="&#xe71d;" 
d="M913 369v430q0 7 -5 12q-21 21 -55 21t-75.5 -10.5t-56.5 -10.5q-21 0 -58.5 21.5t-80 42.5t-76.5 21q-29 0 -67 -22.5t-73 -45t-56 -22.5q-14 0 -44 7.5t-55 13.5t-52.5 3.5t-42.5 -19.5q-5 -6 -5 -8v-447q10 -125 150 -292q78 -93 149 -142.5t100 -49.5q31 0 96.5 49.5
t166.5 158.5q40 45 69.5 91t42.5 80t20.5 61.5t7.5 42.5v14zM742 116q-172 -187 -232 -187q-25 0 -88 45t-131 127q-124 148 -134 258v395q0 18 2 20q6 8 8 9q22 9 79 -6.5t70 -15.5q19 0 54 19t73 37.5t64 18.5q30 0 67.5 -18.5t70.5 -37t52 -18.5q13 0 39 6.5t47 12.5
t45 7t32 -10q7 -7 7 -28v-379q0 -5 -0.5 -13.5t-7 -36t-18 -56t-37.5 -69.5t-62 -80zM691 632q-6 3 -11 3q-8 0 -15.5 -5t-10.5 -12l-142 -332l-142 332q-3 6 -10.5 11t-14.5 5q-12 0 -20.5 -8t-8.5 -20q0 -6 3 -11l166 -389q3 -7 10 -13t14 -6h1h2h2h1q4 0 8 2q12 5 16 17
l166 389q3 6 3 12q0 7 -5 14.5t-12 10.5v0z" />
    <glyph glyph-name="gl_zxgl" unicode="&#xe71e;" 
d="M800 384q0 10 -7.5 17t-17.5 7h-512q-10 0 -17.5 -7t-7.5 -17t7.5 -17t17.5 -7h512q10 0 17.5 7t7.5 17zM263 530h512q10 0 17.5 7.5t7.5 17.5t-7.5 17t-17.5 7h-512q-10 0 -17.5 -7t-7.5 -17t7.5 -17.5t17.5 -7.5zM263 677h512q10 0 17.5 7t7.5 17t-7.5 17t-17.5 7h-512
q-10 0 -17.5 -7t-7.5 -17t7.5 -17t17.5 -7zM836 896h-772v-902q0 -51 36.5 -86.5t87.5 -35.5h596l7 7l162 165l7 7v723q0 51 -36.5 86.5t-87.5 35.5zM910 71l-147 -150h-575q-30 0 -52 21.5t-22 51.5v853h722q30 0 52 -21.5t22 -51.5v-703zM848 189h-112q-31 0 -53 -21.5
t-22 -51.5v-146q0 -11 7.5 -18t18 -7t17.5 7t7 18v146q0 10 7.5 17t17.5 7h112q10 0 17.5 7t7.5 17.5t-7.5 17.5t-17.5 7v0z" />
    <glyph glyph-name="gl_cjwt" unicode="&#xe71f;" 
d="M695 896h-550v0q-25 0 -43 -18t-18 -43v0v-902q0 -25 18 -43t43 -18v0h734v0q25 0 43 18t18 43v703zM695 835l184 -199h-153v0q-13 0 -22 9t-9 22v168zM879 -36q0 -13 -9 -22t-22 -9h-672v0q-13 0 -22 9t-9 22v840q0 13 9 22t22 9h474v-184q0 -25 17.5 -43t43.5 -18h168
v-626v0zM495 259h-69q-2 20 -2 32q0 59 44 115q25 32 36.5 54t11.5 45q0 28 -16.5 44t-48.5 16q-40 0 -70 -21l-18 56q41 29 105 29q63 0 95.5 -32.5t32.5 -80.5q0 -25 -11 -50.5t-21 -40t-32 -41.5q-39 -48 -39 -95zM409 152q0 23 14 38t36 15t35.5 -15t13.5 -38
q0 -22 -13.5 -36.5t-35.5 -14.5q-23 0 -36.5 14.5t-13.5 36.5z" />
    <glyph glyph-name="gl_dp" unicode="&#xe720;" horiz-adv-x="1084" 
d="M1057 473l-2 1l-1 2l-447 394q-11 11 -30 18.5t-35 7.5v0v0q-16 0 -35 -7.5t-30 -18.5l-447 -394l-1 -2l-2 -1q-11 -12 -19 -31.5t-8 -35.5q0 -19 8 -37q10 -25 32 -41q24 -17 54 -17v0h12v-345q0 -39 27.5 -66.5t66.5 -27.5h159q39 0 66.5 27.5t27.5 66.5v196h175v-196
q1 -39 28.5 -66.5t66.5 -27.5h159q39 0 66.5 27.5t27.5 66.5v345h14v0q30 0 54 17q22 16 32 41q8 18 8 37q0 16 -8 35.5t-19 31.5zM990 371h-74v-405v0q0 -14 -10 -24t-24 -10h-159q-15 0 -24.5 10t-9.5 24v0v256h-296v-256v0q0 -14 -10 -24t-24 -10v0h-159q-14 0 -24 10
t-10 24v405h-72q-23 0 -31.5 21.5t7.5 37.5l448 396q10 10 24 10t24 -10l448 -396q16 -16 7.5 -37.5t-31.5 -21.5v0z" />
    <glyph glyph-name="gl_dp1" unicode="&#xe721;" horiz-adv-x="1168" 
d="M585 -119h-356q-22 0 -42 8q-33 11 -51 42q-14 22 -15 47q-4 22 -3 144t0 144q0 11 -8 16q-31 21 -57 57q-11 14 -20 35q-10 22 -17 45q-1 5 -5 32q0 3 -0.5 5.5t-1 6.5t-0.5 5q-2 21 7 65q5 28 15 44q2 2 3 6t2.5 8t2.5 7q2 4 6 15q1 2 7 15t9 20q3 6 7.5 17t6.5 15
q2 6 7.5 18.5t8.5 19.5q2 6 6.5 18t7.5 18t13 30q1 1 4.5 9t5.5 12q5 14 17 29.5t23 23.5q20 15 43 22q8 2 33 6q12 1 24 1q406 1 643 0q8 0 30 -4q23 -4 32 -8q9 -3 27 -14q22 -13 39 -40q3 -4 14 -30q3 -7 11 -25q1 -4 3.5 -10.5t4.5 -10.5q1 -4 4.5 -12t4.5 -12
q2 -3 4.5 -10.5t4.5 -11.5q2 -5 9 -22q0 -1 3 -7.5t4 -9.5l7 -17.5t7 -19.5q3 -7 8.5 -19t7.5 -18q3 -7 7 -21q2 -5 10 -30q1 -3 1 -4l3.5 -22.5t2.5 -22.5t-1 -23q-1 -5 -2 -15t-2 -18t-4 -15q-3 -6 -7 -19.5t-7 -19.5q-22 -44 -49 -68q-4 -4 -16 -14.5t-18 -15.5
q-4 -5 -4 -11q-1 -54 -1 -278q0 -26 -8 -44q-9 -20 -25 -36q-7 -7 -38 -23q-1 -1 -3 -1q-44 -4 -47 -4h-343v0zM587 843h-324q-36 0 -58 -13q-11 -6 -21 -15q-12 -11 -24 -43q-4 -11 -7 -19q-3 -5 -8 -16.5t-8 -17.5q-3 -7 -8 -19.5t-7 -17t-7 -16t-7 -18.5q-2 -3 -4.5 -10
t-4.5 -11q-3 -7 -10 -23.5t-11 -24.5q-11 -27 -15 -38q-7 -21 -9 -37q-1 -10 -1 -36q1 -17 3 -27q2 -12 9 -30q9 -24 15 -32q13 -21 30 -40q12 -14 39 -31q20 -13 51 -21l41 -6q17 -2 59 7q24 5 50 21q31 19 48 39q17 22 37 4q2 -2 5 -5.5t4 -5.5q32 -29 55 -38
q36 -15 40 -16q36 -8 61 -5q21 2 33 6q29 9 50 21q30 19 47 40q8 9 18.5 10t19.5 -8q10 -9 13 -13q22 -22 50 -35q19 -9 32 -13q28 -7 48 -8q29 -2 70 9q28 8 54 27q18 14 37.5 38t28.5 45q11 26 14 53q2 12 2 25q0 41 -17 78q-1 3 -18 46q-1 1 -3.5 7t-3.5 9t-6 16.5
t-8 20.5q-2 5 -7.5 17t-7.5 19q-3 7 -8 20t-6 17q-1 2 -2 5t-2.5 6.5t-2.5 5.5q-9 23 -10 24q-11 24 -15 31q-15 23 -39 32q-22 8 -32 9q-5 1 -31 1h-98h-115.5h-97.5zM585 -77h108.5h128.5h109q21 0 34 5q26 9 37 37q6 13 6 36v242q0 12 -11 8q-26 -8 -35 -9
q-13 -1 -36.5 -1h-26.5q-16 -1 -50 8q-3 1 -37 16q-28 12 -54 36q-7 6 -13 1q-18 -18 -46 -34q-13 -7 -32 -14q-4 -1 -13.5 -3.5t-14.5 -4.5q-11 -5 -39 -5h-14.5h-16t-14 0.5t-15.5 2t-14 3.5q-4 2 -14 4.5t-15 4.5q-16 6 -30 15q-20 13 -40 28q-9 7 -17 0q-13 -11 -20 -16
q-30 -21 -61 -31q-34 -10 -51 -11q-16 0 -19 -1q-8 -3 -19 -1q-4 2 -8 2q-30 -1 -63 10q-6 3 -8 -4v-6v-1v-249q0 -22 14 -41q19 -27 54 -27h356zM585 579h318q5 0 19.5 -0.5t17.5 -13.5q5 -17 -8 -24q-5 -2 -15 -2h-380h-282h-5.5h-4.5q-15 1 -16 17q-1 10 3.5 16.5
t14.5 5.5q5 0 14.5 0.5t14.5 0.5h309v0z" />
    <glyph glyph-name="gl_dp2" unicode="&#xe722;" horiz-adv-x="1063" 
d="M1058 624l-33 -177q-1 -7 -6.5 -12t-12.5 -5q-2 0 -4 1q-6 1 -10 5q-7 5 -8 13q-11 83 -50.5 157t-101.5 129q-70 62 -158 91q-29 10 -70.5 17t-71.5 7q-16 0 -32 -2q-37 -2 -86.5 -15.5t-82.5 -29.5q-83 -41 -144 -113q-29 -34 -58 -88.5t-40 -98.5q-1 -6 -7 -10.5
t-12 -4.5q-3 0 -5 1q-8 2 -12.5 9t-2.5 16q12 47 43.5 106.5t63.5 96.5q66 78 156 122q36 18 90 33t94 17q18 1 35 1q33 0 78.5 -7t76.5 -18q95 -31 171 -99q42 -37 84.5 -101.5t60.5 -117.5l15 85q1 7 7 11.5t13 4.5h4q8 -1 12.5 -8t3.5 -16zM62 337q5 -1 9 -5q7 -5 8 -13
q12 -83 51 -157t102 -129q70 -62 157 -91q29 -10 70.5 -17t72.5 -7q16 0 31 2q37 2 86.5 15.5t83.5 29.5q83 41 144 113q29 34 57.5 88.5t39.5 98.5q2 6 7.5 10.5t12.5 4.5q2 0 5 -1q8 -2 12 -9t2 -16q-12 -47 -43 -106.5t-63 -96.5q-67 -78 -157 -122q-36 -18 -90 -33
t-94 -17q-17 -1 -34 -1q-80 0 -155 25q-95 31 -172 99q-42 37 -84 101.5t-60 117.5l-15 -85q-2 -7 -7.5 -11.5t-12.5 -4.5h-4q-8 1 -13 8t-3 16l32 177q1 7 7 12t13 5q2 0 4 -1zM859 482q-5 13 -15 23.5t-23 15.5q-14 6 -29 6v0q-15 0 -28 -6q-13 -5 -23 -15.5t-16 -23.5
q-5 -14 -5 -29v0q0 -12 4 -24l-89 -66l-59 144q11 10 19.5 27t8.5 32v1q0 15 -5 28q-6 14 -16 24t-23 16t-28 6v0q-15 0 -29 -6q-13 -6 -23 -16t-15 -24q-6 -13 -6 -28v0q0 -37 29 -60l-60 -144l-88 66q4 12 4 24q0 15 -6 29q-5 13 -15 23.5t-23 15.5q-14 6 -29 6v0
q-15 0 -28 -6q-13 -5 -23 -16q-9 -9 -15 -24t-6 -28v0q0 -15 5 -29q6 -13 16 -23t23 -16q12 -5 25 -6l48 -236q3 -14 17 -14h398q14 0 17 14l48 236q13 1 25 6q13 5 23 16q9 9 15 24t6 28v0q0 15 -6 29zM792 414q-3 0 -7 1h-3q-6 0 -11 -4t-6 -10l-49 -237h-369l-48 237
q-1 6 -6 10t-11 4h-4q-3 -1 -7 -1v0q-15 0 -26 11.5t-11 27.5t11 27.5t26.5 11.5t26.5 -11.5t11 -27.5q0 -11 -6 -21q-2 -4 -2 -8q0 -9 7 -15l117 -87q5 -4 11 -4q12 0 16 11l74 179q2 3 2 6q0 12 -11 17q-23 10 -23 36q0 16 11 27.5t26.5 11.5t26.5 -11.5t11 -27.5
q0 -26 -23 -36q-10 -5 -10 -16q0 -4 1 -7l75 -179q4 -11 16 -11q6 0 10 4l118 87q7 6 7 14q0 5 -2 9q-6 10 -6 21v0q0 16 11 27.5t26.5 11.5t26.5 -11.5t11 -27.5t-11 -27.5t-27 -11.5v0z" />
    <glyph glyph-name="gl_dp3" unicode="&#xe723;" 
d="M996 132v5v498v2v4q0 9 -5.5 18t-13.5 13l-445 216q-7 4 -15 4t-15 -4l-451 -216q-10 -5 -15 -15q-8 -9 -8 -22v0v-502q0 -10 6 -19t15 -13q4 -3 8 -5l445 -216q7 -4 15 -4t15 4l445 216q8 4 13.5 13t5.5 18v5zM517 846l424 -205l-424 -206l-431 206zM69 139v463
l427 -205v-468l-413 201q-4 2 -14 9zM533 -71v466l423 205v-465q-8 -5 -12 -7z" />
    <glyph glyph-name="gl_dp4" unicode="&#xe724;" 
d="M873.5 745.5q-72.5 72.5 -166 111t-195.5 38.5t-195.5 -38.5t-166 -111t-111 -166t-38.5 -195.5t38.5 -195.5t111 -166t166 -111t195.5 -38.5t195.5 38.5t166 111t111 166t38.5 195.5t-38.5 195.5t-111 166zM512 -80q-94 0 -180 36.5t-148.5 99t-99 148.5t-36.5 180
t36.5 180t99 148.5t148.5 99t180 36.5t180 -36.5t148.5 -99t99 -148.5t36.5 -180t-36.5 -180t-99 -148.5t-148.5 -99t-180 -36.5zM879 493q-6 14 -17 26t-26 18q-15 7 -32 7v0v0q-17 0 -32 -7q-14 -6 -25.5 -18t-17.5 -26q-6 -16 -6 -33v0q0 -13 4 -27l-99 -73l-67 161
q32 25 32 67q0 16 -6 32q-6 15 -17.5 26.5t-25.5 17.5q-15 7 -32 7v0v0q-17 0 -32 -7q-14 -6 -25.5 -17.5t-17.5 -26.5q-6 -16 -6 -32q0 -42 32 -67l-67 -161l-99 74q4 13 4 26v0q0 17 -6 33q-6 14 -17.5 26t-25.5 18q-15 7 -32 7v0v0q-17 0 -32 -7q-15 -6 -26 -17.5
t-17 -26.5q-6 -16 -6 -32.5t6 -32.5q6 -15 17 -26.5t26 -17.5q13 -6 28 -7l54 -264q1 -7 6.5 -11.5t12.5 -4.5v0h446v0q7 0 12.5 4.5t6.5 11.5l54 264q15 1 28 7q15 6 26 17.5t17 26.5q6 16 6 32.5t-6 32.5zM804 416q-4 0 -8 1q-8 2 -14.5 -2.5t-8.5 -12.5l-54 -266h-414
l-54 266q-2 8 -8.5 12.5t-14.5 2.5q-4 -1 -8 -1q-17 0 -29.5 13t-12.5 31.5t12.5 31t29.5 12.5t29.5 -12.5t12.5 -31.5q0 -12 -6 -23q-9 -15 5 -26l132 -98q5 -4 12 -4q13 0 18 12l83 201q3 7 0 14.5t-10 10.5q-26 12 -26 41q0 18 12.5 31t29.5 13t29.5 -13t12.5 -31
q0 -29 -26 -41q-7 -3 -10 -10.5t0 -14.5l83 -201q4 -9 13.5 -11.5t16.5 3.5l132 98q14 11 5 26q-6 11 -6 23q0 19 12.5 31.5t29.5 12.5t29.5 -12.5t12.5 -31t-12.5 -31.5t-29.5 -13v0z" />
    <glyph glyph-name="gl_dp5" unicode="&#xe725;" horiz-adv-x="1158" 
d="M1028 896h-647q-54 0 -92.5 -37.5t-38.5 -91.5v-171l-230 -131l-16 -10l3 -4q-7 -11 -7 -23v0v-371q0 -19 13 -33t32 -14t32 14t13 33v345l224 128q15 5 23.5 17.5t8.5 27.5v186q0 17 12 28.5t28 11.5h636q16 0 28 -11.5t12 -28.5v-615q0 -19 14 -33t34 -14t34 14t14 33
v621q0 54 -38 91.5t-92 37.5zM403.5 491q-19.5 0 -33 -13.5t-13.5 -32.5v-97h-130q-20 0 -33.5 -13.5t-13.5 -32.5t14 -33t33 -14l149 1q35 0 55 21q22 22 20 52v116q0 19 -14 32.5t-33.5 13.5zM892 198q-58 0 -103 -36t-57 -91h-265q-13 55 -58 91t-103 36
q-68 0 -116.5 -48t-48.5 -115t48.5 -115t117.5 -48q53 0 97 31.5t60 81.5h271q16 -50 59.5 -81.5t97.5 -31.5q69 0 117.5 48t48.5 115t-48.5 115t-117.5 48zM306.5 -30q-27.5 0 -46.5 19t-19 46t19 46t46.5 19t46.5 -19t19 -46t-19 -46t-46.5 -19zM892 -30q-27 0 -46.5 19
t-19.5 46t19.5 46t46.5 19t46.5 -19t19.5 -46t-19.5 -46t-46.5 -19v0z" />
    <glyph glyph-name="gl_sp" unicode="&#xe726;" 
d="M64 832h896v-896h-896v896zM0 -128h1024v1024h-1024v-1024zM288 640v-64h192v-448h64v448h192v64h-448z" />
    <glyph glyph-name="gl_sp1" unicode="&#xe727;" 
d="M118 -128q-50 0 -83.5 39.5t-33.5 105.5v815q0 26 20.5 45t48.5 19h884q29 0 49 -17.5t20 -46.5v-815q0 -66 -33.5 -105.5t-83.5 -39.5h-788zM77 -5q0 -19 12 -33t29 -14h788q17 0 29 14t12 33v88h-870v-88zM947 820h-870v-659h870v659zM513 384q-83 0 -148 44.5
t-101 115.5t-45 159q-1 2 -1 4q0 15 10 26q12 14 30 14v0q14 0 25.5 -10.5t13.5 -24.5q7 -69 32 -124t72.5 -90.5t111.5 -35.5q48 0 87.5 20.5t65.5 55.5t41.5 79t21.5 95q1 14 12.5 24.5t25.5 10.5v0q18 0 29.5 -13.5t9.5 -30.5q-9 -88 -44.5 -159t-100 -115.5
t-148.5 -44.5v0z" />
    <glyph glyph-name="gl_sp2" unicode="&#xe728;" horiz-adv-x="1028" 
d="M920 302h-379v0q-9 0 -16 -7t-7 -16v-1v-382q0 -10 7 -17t16 -7h379q10 0 17 7t7 17v0v382v1q0 9 -7 16t-17 7v0zM897 -80h-332v335h332v-335zM402 302h-378v0q-10 0 -17 -7t-7 -16v-1v-382q0 -10 7 -17t17 -7h378v0q10 0 17 7t7 17v0v382v1q0 9 -7 16t-17 7v0zM379 -80
h-332v335h332v-335zM402 828h-378q-10 0 -17 -7t-7 -17v0v-383q0 -9 7 -16.5t17 -7.5h378q10 1 17 8t7 16v0v383v0q0 10 -7 17t-17 7zM379 445h-332v335h332v-335zM1021 638l-248 251q-7 7 -16.5 7t-16.5 -7l-248 -251q-7 -7 -7 -16.5t7 -16.5l248 -251q7 -7 16.5 -7t16.5 7
l248 251q7 7 7 17q0 9 -7 16zM757 405l-215 217l215 216l214 -216l-214 -217v0z" />
    <glyph glyph-name="gl_tg" unicode="&#xe729;" 
d="M947 895h-470q-4 1 -8 1q-16 0 -27 -11l-402 -402q-16 -15 -26.5 -41.5t-10.5 -48.5t10.5 -48.5t26.5 -42.5l393 -393q15 -15 41.5 -26t48.5 -11v0q53 0 91 37l280 280q11 12 11 28t-11.5 27.5t-27.5 11.5t-27 -12l-280 -280q-15 -14 -35.5 -14t-35.5 14l-393 393
q-15 15 -15 35.5t15 35.5l389 389l459 4v-477q0 -16 11.5 -27.5t27.5 -11.5t27.5 11.5t11.5 27.5v477q0 31 -21.5 52.5t-52.5 21.5zM771 656q-36 36 -90.5 36t-90.5 -36q-15 -15 -26 -41.5t-11 -48.5v0q0 -53 37 -91q15 -15 41.5 -26t48.5 -11v0q53 0 91 37q15 16 26 42
t11 48v1v0q0 22 -11 48.5t-26 41.5zM727 519q-19 -19 -47 -19t-46 19q-20 19 -20 46.5t19.5 46.5t46.5 19v0h1q27 0 46.5 -19t19.5 -46.5t-20 -46.5v0z" />
    <glyph glyph-name="gl_cw" unicode="&#xe72a;" horiz-adv-x="1131" 
d="M1078 222h-431v0q-23 0 -38.5 16t-15.5 38v0v216v0q0 22 15.5 38t38.5 16v0h431v0q22 0 38 -16t16 -38v0v-216v0q0 -22 -16 -38t-38 -16v0zM1078 492h-431v-216h431v216zM755 357h-54v54h54v-54zM997 788v0q0 23 -16 38.5t-38 15.5v0h-835v0q-23 0 -38.5 -15.5
t-15.5 -38.5v0v-808v0q0 -23 15.5 -38.5t38.5 -15.5v0h835v0q22 0 38 15.5t16 38.5v0v188h54v-188q0 -45 -31.5 -76.5t-76.5 -31.5h-835v0q-45 0 -76.5 31.5t-31.5 76.5v0v808v0q0 45 31.5 76.5t76.5 31.5v0h835q45 0 76.5 -31.5t31.5 -76.5v-188h-54v188z" />
    <glyph glyph-name="gl_ddgl" unicode="&#xe72b;" 
d="M857 886h-117q-8 0 -14.5 -6t-6.5 -14.5t6.5 -14.5t14.5 -6h117q19 -1 32.5 -14.5t13.5 -32.5v-828q0 -19 -13.5 -32.5t-32.5 -14.5h-690q-19 1 -32.5 14.5t-13.5 32.5v828q0 19 13.5 32.5t32.5 13.5h123q9 0 15 6.5t6 15t-6 14.5t-15 6h-123v0q-37 0 -62.5 -25.5
t-25.5 -62.5v0v-828v0q0 -37 25.5 -62.5t62.5 -25.5v0h690v0q37 0 62.5 25.5t25.5 62.5v0v828v0q0 37 -25.5 62.5t-62.5 25.5v0zM414 845h194q9 0 15 6t6 14.5t-6 14.5t-15 6h-194q-9 0 -15 -6t-6 -14.5t6 -14.5t15 -6zM380 464h261q5 0 9 4t4 9t-4 8.5t-9 3.5h-261
q-5 0 -8.5 -3.5t-3.5 -8.5t3.5 -9t8.5 -4zM380 213h261q5 0 9 3.5t4 9t-4 9t-9 3.5h-261q-5 0 -8.5 -3.5t-3.5 -9t3.5 -9t8.5 -3.5v0z" />
    <glyph glyph-name="gl_bxgl" unicode="&#xe72c;" 
d="M535 824v37q0 35 -23 35t-23 -35v-37q-95 -7 -181.5 -48.5t-150.5 -106.5t-101.5 -153.5t-37.5 -184.5v-35h471v-283q0 -60 36 -100.5t93 -40.5q58 0 99.5 41.5t41.5 99.5v35h-46v-35q0 -29 -33 -62t-62 -33t-56 32.5t-27 62.5v283h471v35q0 96 -37.5 184.5t-101.5 153.5
t-150.5 106.5t-181.5 48.5zM512 342h-447v0v0v0v0q7 81 45.5 161t97 142.5t139.5 100t165 33.5q91 -3 172 -41.5t138.5 -99t93.5 -138t43 -158.5v0v0v0v0h-447z" />
    <glyph glyph-name="gl_cw1" unicode="&#xe72d;" 
d="M588 596l-150 -200l-150 200h-50l150 -200h-125v-49h150v-76l-150 1v-50h150v-100h50v100h150v50h-150v75h150v49h-125l150 200h-50zM862 72v-25q0 -52 -36.5 -88.5t-87.5 -36.5h-550q-52 0 -88.5 36.5t-36.5 88.5v674q0 52 36.5 88.5t88.5 36.5h550q51 0 87.5 -36.5
t36.5 -88.5v-25h50v25q0 72 -51 123.5t-123 51.5h-550q-72 0 -123.5 -51.5t-51.5 -123.5v-674q0 -72 51.5 -123.5t123.5 -51.5h550q72 0 123 51.5t51 123.5v25h-50v0zM811 498h200v-50h-200v50zM811 319h200v-50h-200v50z" />
    <glyph glyph-name="gl_cw2" unicode="&#xe72e;" 
d="M836 896h-772v-902q0 -51 36.5 -86.5t87.5 -35.5h596l7 7l162 165l7 7v723q0 51 -36.5 86.5t-87.5 35.5zM910 71l-147 -150h-575q-30 0 -52 21.5t-22 51.5v853h722q30 0 52 -21.5t22 -51.5v-703zM848 189h-112q-31 0 -53 -21.5t-22 -51.5v-146q0 -11 7.5 -18t18 -7
t17.5 7t7 18v146q0 10 7.5 17t17.5 7h112q10 0 17.5 7t7.5 17.5t-7.5 17.5t-17.5 7zM658 676l-148 -197l-147 197h-50l148 -197h-123v-49h148v-75l-148 1v-49h148v-98h49v98h148v49h-148v74h148v49h-123l147 197h-49z" />
    <glyph glyph-name="gl_mbgl" unicode="&#xe72f;" 
d="M73 238h293v-293h-293v293zM0 -128h439v439h-439v-439zM658 238h293v-293h-293v293zM585 -128h439v439h-439v-439zM585 530h293v73h-293v-73zM585 677h439v73h-439v-73zM73 823h293v-293h-293v293zM0 457h439v439h-439v-439zM585 823h439v73h-439v-73z" />
    <glyph glyph-name="gl_cw3" unicode="&#xe730;" 
d="M100 770q0 20 24 44.5t44 24.5h688q20 0 44 -24.5t24 -44.5v-149h58v149v0q0 52 -37 89t-89 37v0h-688q-52 -1 -89 -37.5t-37 -88.5v-266h58v266zM924 -2q0 -20 -24 -44.5t-44 -24.5h-688q-20 0 -44 24.5t-24 44.5v148h-58v-148v0q0 -52 37 -89t89 -37v0h688v0
q52 0 89 37t37 89v0v266h-58v-266zM925 483q-9 14 -25 14q-9 0 -16 -5l-308 -195l-178 177l-288 -160q-15 -8 -15 -25q0 -8 4 -15q8 -15 25 -15q8 0 15 4l249 138l180 -180l349 222q9 6 11.5 18t-3.5 22v0z" />
    <glyph glyph-name="gl_cw4" unicode="&#xe731;" 
d="M768 611h-512v0q-30 0 -65 15t-55.5 35.5t-35.5 56t-15 64.5v0v0q0 20 10 43.5t23.5 37t37.5 23.5t43 10v0h626q23 0 44 -9t36 -24q14 -14 24 -37.5t10 -43.5v0q0 -35 -14 -66q-13 -31 -36.5 -54.5t-54.5 -36.5q-31 -14 -66 -14v0zM199 839q-23 0 -40 -16.5t-17 -40.5v0
q0 -20 10 -43.5t23.5 -37t37 -23.5t43.5 -10v0h512v0q20 0 43.5 10t37 23.5t23.5 37t10 43.5v0q0 24 -17 40.5t-40 16.5h-626zM825 -128h-626v0q-23 0 -44 9t-36 24q-14 14 -24 37.5t-10 43.5v0v796v0q0 20 10 43.5t23.5 37t37.5 23.5t43 10v0h626q23 0 44 -9t36 -24
q14 -14 24 -37.5t10 -43.5v0v-796v0q0 -20 -10 -43.5t-24 -37.5q-15 -15 -36 -24t-44 -9v0zM199 839q-23 0 -40 -16.5t-17 -40.5v-796q0 -24 17 -40.5t40 -16.5h626q23 0 40 16.5t17 40.5v796q0 24 -17 40.5t-40 16.5h-626zM695 331v41h-126l120 145h-73l-106 -137l-107 137
h-72l119 -145h-125v-41h153v-73h-153v-41h153v-108h63v108h154v41h-154v73h154z" />
    <glyph glyph-name="gl_sjlm" unicode="&#xe732;" 
d="M819 -128h-614q-37 0 -63.5 26.5t-26.5 63.5v844q0 37 26.5 63.5t63.5 26.5h614q37 0 63.5 -26.5t26.5 -63.5v-844q0 -37 -26.5 -63.5t-63.5 -26.5zM205 844q-16 0 -27 -11t-11 -27v-844q0 -16 11 -27t27 -11h614q15 0 26.5 11t11.5 27v844q0 16 -11.5 27t-26.5 11h-614z
M251 620h335v-52h-335v52zM251 474h423v-53h-423v53zM251 329h555v-52h-555v52zM141 172h742v-53h-742v53zM566 27v0q0 -22 -16 -38t-38 -16v0q-22 0 -38 16t-16 38.5t16 38t38 15.5v0q22 0 38 -15.5t16 -38.5v0v0z" />
    <glyph glyph-name="gl_cw5" unicode="&#xe733;" 
d="M596 633l-149 -200l-150 200h-50l150 -200h-125v-50h150v-76l-150 1v-50h150v-99h49v99h150v50h-150v75h150v50h-125l150 200h-50zM853 219v-172q0 -52 -37 -88.5t-88 -36.5h-550q-51 0 -87.5 36.5t-36.5 88.5v674q0 52 36.5 88.5t87.5 36.5h550q51 0 88 -36.5t37 -88.5
v-25h50v25q0 72 -51.5 123.5t-123.5 51.5h-550q-72 0 -123 -51.5t-51 -123.5v-674q0 -72 51 -123.5t123 -51.5h550q72 0 123.5 51.5t51.5 123.5v172h-50v0zM915 237l-141 -141l-36 35l141 141zM844 237l35 35l141 -141l-35 -35z" />
  </font>
</defs>
</svg>
